<svg data-v-7d4edb05="" xmlns="http://www.w3.org/2000/svg" width="92" height="70" viewBox="0 0 92 70"><g data-v-7d4edb05="" fill="none" fill-rule="evenodd" transform="translate(-1 -1)"><rect data-v-7d4edb05="" width="43" height="60" x="10" y="6" fill="#D6DBEB" opacity=".269" rx="3" transform="rotate(-22 31.5 36)"></rect> <rect data-v-7d4edb05="" width="43" height="60" x="41" y="6" fill="#D6DBEB" opacity=".269" rx="3" transform="rotate(22 62.5 36)"></rect> <g data-v-7d4edb05="" fill-rule="nonzero"><g data-v-7d4edb05="" transform="translate(47 45)"><path data-v-7d4edb05="" fill="#4B536B" d="M10.968.279a5.039 5.039 0 1 0 .001 10.077A5.039 5.039 0 0 0 10.968.28zm2.178 7.326c-.134.27-.32.495-.562.676a2.561 2.561 0 0 1-.859.408c-.13.037-.266.064-.404.086v.591h-.775v-.542a4.194 4.194 0 0 1-.562-.05 3.82 3.82 0 0 1-.569-.134 2.764 2.764 0 0 1-.418-.164 1.021 1.021 0 0 1-.244-.156.474.474 0 0 1-.118-.23 1.924 1.924 0 0 1-.042-.465c0-.135.004-.243.014-.324a.776.776 0 0 1 .042-.195c.019-.049.042-.082.069-.098a.21.21 0 0 1 .105-.024c.052 0 .127.029.227.087.101.058.225.122.374.191.149.071.322.135.52.195s.422.091.673.091c.159 0 .299-.015.422-.048s.23-.079.321-.14a.593.593 0 0 0 .207-.23.702.702 0 0 0 .069-.321.535.535 0 0 0-.128-.359 1.128 1.128 0 0 0-.343-.262 3.983 3.983 0 0 0-.481-.209 11.381 11.381 0 0 1-.552-.217 5.015 5.015 0 0 1-.55-.272 2.077 2.077 0 0 1-.482-.377 1.694 1.694 0 0 1-.341-.538 1.956 1.956 0 0 1-.13-.753c0-.297.058-.571.175-.82.116-.248.283-.461.503-.639.218-.176.485-.314.799-.412.14-.043.288-.077.443-.101v-.582h.775v.54a4.14 4.14 0 0 1 .907.143c.149.042.275.088.377.136.102.049.176.091.22.126a.315.315 0 0 1 .093.105.454.454 0 0 1 .043.126 2.556 2.556 0 0 1 .034.449c0 .126-.003.228-.01.307a.779.779 0 0 1-.035.189c-.016.045-.038.077-.065.093a.193.193 0 0 1-.098.025.484.484 0 0 1-.195-.073 3.307 3.307 0 0 0-.331-.157 4.035 4.035 0 0 0-.461-.157 2.205 2.205 0 0 0-.596-.073c-.159 0-.296.016-.412.049a.773.773 0 0 0-.286.14.61.61 0 0 0-.225.474c0 .145.044.266.134.363.088.098.204.184.349.258.144.076.307.145.491.21.184.064.37.136.558.213.189.077.375.166.559.268.183.102.348.228.491.377.145.149.261.327.349.534.088.207.132.452.132.736a2.148 2.148 0 0 1-.201.936z"></path> <circle data-v-7d4edb05="" cx="2.34" cy="5.317" r="1.679" fill="#D6DBEB"></circle> <circle data-v-7d4edb05="" cx="19.596" cy="5.317" r="1.679" fill="#D6DBEB"></circle></g> <path data-v-7d4edb05="" fill="#4B536B" d="M72.194 41.635H43.742c-.785 0-1.421.563-1.421 1.257v14.852c0 .694.636 1.257 1.421 1.257h28.451c.785 0 1.421-.563 1.421-1.257V42.892c.001-.695-.635-1.257-1.42-1.257zM44.59 54.338v-7.357c.987-.009 3.28-.352 3.286-3.34h20.221c.017.994.381 3.197 3.25 3.247v7.377c-.963.036-2.84.409-3.122 2.729h-20.32c-.164-1.108-.837-2.65-3.315-2.656z"></path> <g data-v-7d4edb05="" fill="#4B536B"><path data-v-7d4edb05="" d="M35.6 25.5h4.466v4.466H35.6zM43.615 25.5h4.466v4.466h-4.466zM51.631 25.5h4.466v4.466h-4.466zM27.584 32.291h4.466v4.466h-4.466zM27.584 25.5h4.466v4.466h-4.466zM35.6 32.291h4.466v4.466H35.6zM43.615 32.291h4.466v4.466h-4.466zM51.631 32.291h4.466v4.466h-4.466zM27.584 39.081h4.466v4.466h-4.466zM39.724 42.892c0-.553.123-1.079.342-1.554v-2.256H35.6v4.466h4.124v-.656z"></path> <g data-v-7d4edb05=""><path data-v-7d4edb05="" d="M31.147 15.249h-.065c-.818 0-1.488-.67-1.488-1.488v-3.273c0-.818.67-1.488 1.488-1.488h.065c.818 0 1.488.67 1.488 1.488v3.273c0 .818-.669 1.488-1.488 1.488zM41.873 15.249h-.065c-.818 0-1.488-.67-1.488-1.488v-3.273c0-.818.67-1.488 1.488-1.488h.065c.818 0 1.488.67 1.488 1.488v3.273c0 .818-.669 1.488-1.488 1.488zM52.599 15.249h-.065c-.818 0-1.488-.67-1.488-1.488v-3.273c0-.818.67-1.488 1.488-1.488h.065c.818 0 1.488.67 1.488 1.488v3.273c0 .818-.67 1.488-1.488 1.488z"></path> <path data-v-7d4edb05="" d="M57.022 12.124h-1.079v1.636c0 1.844-1.5 3.343-3.343 3.343h-.065a3.347 3.347 0 0 1-3.343-3.343v-1.636h-3.974v1.636c0 1.844-1.5 3.343-3.343 3.343h-.065a3.347 3.347 0 0 1-3.343-3.343v-1.636h-3.974v1.636c0 1.844-1.5 3.343-3.343 3.343h-.065a3.347 3.347 0 0 1-3.343-3.343v-1.636H26.66c-4.563 0-8.274 3.712-8.274 8.274v20.375c0 4.563 3.712 8.274 8.274 8.274h13.064v-3.711H26.66a4.568 4.568 0 0 1-4.563-4.563V23.435h39.489v15.602h3.711V20.399c-.001-4.563-3.712-8.275-8.275-8.275z"></path></g></g></g></g></svg>